<svg id="ICONS" xmlns="http://www.w3.org/2000/svg" width="18" height="18" viewBox="0 0 18 18">
  <defs>
    <style>
      .fill {
        fill: #444;
      }
    </style>
  </defs>
  <path class="fill" d="M16.39062,6.80957a4.38041,4.38041,0,0,1-.71386-.56543,3.69392,3.69392,0,0,1,.09277-.98145,2.84274,2.84274,0,0,0-.40527-2.63281,2.84552,2.84552,0,0,0-2.6211-.39648,4.0954,4.0954,0,0,1-.96484.0996,3.80072,3.80072,0,0,1-.58789-.72363C10.68652.89257,10.06055,0,9,0S7.31348.89257,6.80957,1.60937a4.38057,4.38057,0,0,1-.56543.71387,3.77478,3.77478,0,0,1-.98144-.09277,2.83643,2.83643,0,0,0-2.63282.40527A2.846,2.846,0,0,0,2.2334,5.25683a4.07355,4.07355,0,0,1,.09961.96485,3.801,3.801,0,0,1-.72363.58789C.89258,7.31347,0,7.93945,0,9s.89258,1.68652,1.60938,2.19043a4.38041,4.38041,0,0,1,.71386.56543,3.69382,3.69382,0,0,1-.09277.98144,2.84274,2.84274,0,0,0,.40527,2.63281,2.846,2.846,0,0,0,2.6211.39649,3.88336,3.88336,0,0,1,.96484-.09961,3.801,3.801,0,0,1,.58789.72363C7.31348,17.10742,7.93945,18,9,18s1.68652-.89258,2.19043-1.60938a4.381,4.381,0,0,1,.56543-.71387,3.65627,3.65627,0,0,1,.98144.09278,2.84318,2.84318,0,0,0,2.63282-.40528,2.846,2.846,0,0,0,.39648-2.62109,4.07348,4.07348,0,0,1-.09961-.96484,3.801,3.801,0,0,1,.72363-.58789C17.10742,10.68652,18,10.06054,18,9S17.10742,7.31347,16.39062,6.80957ZM15.24121,9.55371A3.6303,3.6303,0,0,0,13.8252,11a3.80173,3.80173,0,0,0-.0293,2.08007,6.63647,6.63647,0,0,1,.10547.82422,6.50741,6.50741,0,0,1-.82715-.10644A3.828,3.828,0,0,0,11,13.82519a3.63039,3.63039,0,0,0-1.44629,1.416A5.64387,5.64387,0,0,1,9,15.95019a5.64387,5.64387,0,0,1-.55371-.709A3.63039,3.63039,0,0,0,7,13.82519a2.34782,2.34782,0,0,0-.9082-.16211,6.97569,6.97569,0,0,0-1.17188.13282,6.63806,6.63806,0,0,1-.82422.10546,6.50553,6.50553,0,0,1,.10645-.82714A3.81848,3.81848,0,0,0,4.1748,11a3.6303,3.6303,0,0,0-1.416-1.44629A5.644,5.644,0,0,1,2.0498,9a5.644,5.644,0,0,1,.709-.55371A3.63042,3.63042,0,0,0,4.1748,7a3.80177,3.80177,0,0,0,.0293-2.08008,6.63623,6.63623,0,0,1-.10547-.82422,6.50567,6.50567,0,0,1,.82715.10645A3.80882,3.80882,0,0,0,7,4.1748a3.63043,3.63043,0,0,0,1.44629-1.416A5.64328,5.64328,0,0,1,9,2.0498a5.64328,5.64328,0,0,1,.55371.709A3.63043,3.63043,0,0,0,11,4.1748a3.78353,3.78353,0,0,0,2.08008.0293,6.63623,6.63623,0,0,1,.82422-.10547,6.50567,6.50567,0,0,1-.10645.82715A3.81848,3.81848,0,0,0,13.8252,7a3.63042,3.63042,0,0,0,1.416,1.44629A5.644,5.644,0,0,1,15.9502,9,5.644,5.644,0,0,1,15.24121,9.55371Z"/>
  <path class="fill" d="M9.29785,6.01524H9.29492a2.99959,2.99959,0,1,0-.58984,5.97011c.10058.00976.20117.01465.30078.01465a3.00167,3.00167,0,0,0,2.97952-3.29655A3.0158,3.0158,0,0,0,9.29785,6.01524Zm.69775,3.0841a.99435.99435,0,0,1-.3614.67524,1.016,1.016,0,0,1-.73256.22183A1.00067,1.00067,0,0,1,9.00029,8c.03223,0,.06544.002.09768.00488A1.00769,1.00769,0,0,1,9.9956,8.902,1.10847,1.10847,0,0,1,9.9956,9.09934Z"/>
</svg>
